# xmcd
#
# Track frame offsets:
#	150
#	8640
#	33272
#	55370
#	72260
#	97642
#	119592
#	143192
#	160615
#	182402
#	204805
#
# Disc length: 2950 seconds
#
# Revision: 1
# Processed by: cddbd v1.5.1PL0 Copyright (c) Steve Scherf et al.
# Submitted via: CDex 1.50Beta5
#
DISCID=820b840b
DTITLE=Friends of Life - vicious night in NEW YORK CITY,a
DYEAR=1991
DGENRE=Pop
TTITLE0=栞のテーマ
TTITLE1=愛する女性とのすれ違い
TTITLE2=来いなジャマイカ
TTITLE3=別れ話は最後に
TTITLE4=素顔で踊らせて
TTITLE5=Miss Brand-New Day
TTITLE6=OH,GIRL
TTITLE7=フリフリ’65
TTITLE8=Please
TTITLE9=悪魔の恋
TTITLE10=さよならベイビー
EXTD=
EXTT0=
EXTT1=
EXTT2=
EXTT3=
EXTT4=
EXTT5=
EXTT6=
EXTT7=
EXTT8=
EXTT9=
EXTT10=
PLAYORDER=
